<svg id="Layer_1" data-name="Layer 1" xmlns="http://www.w3.org/2000/svg" viewBox="0 0 84 84">
	<defs>
		<style>.cls-1{fill:#074c31;}.cls-2{fill:#a1c038;}.cls-3{fill:#fff;}</style>
	</defs>
	<path class="cls-1" d="M11.73,58.83C8.05,60.71,10,64.61,13,62.73c2.85-1.57,3.32-2.62,5.56-4,6.91-5,28.13-8.63,29.58,2.37-.69,4.21-8.17-.36-9.44,2.07-1.43,2.83,1.39,4.16,4.06,4,14.17.16,21.24-15,26.8-9.82C74.64,64.34,57.42,73.41,51.8,74c-9.83.94-21.21,0-28.76-1-12.29-.8-11.79,1.11-11.56.65.06-.27-2.39,2.5,1.1,3C29.86,77.88,65.76,85.39,75.25,61c1.44-8.35-8.57-11.5-14.47-7.59-6.06,5.23-9.52,1.26-15.55-1.92-8-3.65-19.73-2.35-30.22,5-1.5,1-5.48,2.34-4.83,6.2"/>
	<path class="cls-2" d="M37,16.83V13.07h.93V12H45v-1H46.1V10H48V11H49v5.86h3v2h1v6.13H52L52,27h.93v.9H54v2.17h1.07c0,4.85,1.06,11.17-5.27,12.9-6.29-.84-12.8,2.31-17.13-2.6-5.18-6,.87-11.44.4-17.17.22-1.43-1-4.8,1.06-4.17L34,17Z"/>
	<path class="cls-3" d="M36.62,27.05C31.06,33.77,34.45,39.59,42,39c3.07-1.05,7.86,1.11,8.84-3C52.55,23.87,43.69,27.28,36.62,27.05Z"/>
	<rect class="cls-3" x="35.93" y="21" width="13.87" height="2"/>
	<path class="cls-3" d="M40.6,15.13c-.77,2.76,4,1.79,4.8,1.94.57-.17.64-1.49.73-1.94Z"/>
</svg>