<?xml version="1.0" encoding="utf-8"?>
<!-- Generator: Adobe Illustrator 26.0.1, SVG Export Plug-In . SVG Version: 6.00 Build 0)  -->
<svg version="1.1" id="Layer_1" xmlns="http://www.w3.org/2000/svg" xmlns:xlink="http://www.w3.org/1999/xlink" x="0px" y="0px"
	 viewBox="0 0 84 84" style="enable-background:new 0 0 84 84;" xml:space="preserve">
<style type="text/css">
	.st0{fill:#074C31;}
	.st1{fill:#A1C038;}
	.st2{fill:#FFFFFF;}
</style>
<path class="st0" d="M11.7,58.8C8,60.7,10,64.6,13,62.7c2.8-1.6,3.3-2.6,5.6-4.1c6.9-5,28.1-8.6,29.6,2.4c-0.7,4.2-8.2-0.4-9.4,2.1
	c-1.4,2.8,1.4,4.2,4.1,4c14.2,0.2,21.2-15,26.8-9.8c5.1,7.1-12.1,16.2-17.7,16.7c-9.8,0.9-21.2,0-28.8-1
	c-12.3-0.8-11.8,1.1-11.6,0.6c0.1-0.3-2.4,2.5,1.1,3.1c17.3,1.3,53.2,8.8,62.7-15.6c1.4-8.4-8.6-11.5-14.5-7.6
	c-6.1,5.2-9.5,1.3-15.6-1.9c-8-3.7-19.7-2.3-30.2,5c-1.5,1-5.5,2.3-4.8,6.2"/>
<g>
	<path class="st1" d="M37,16.8c0-1.9,0-3.2,0-3.8h0.9v-1c0.6,0,6.4,0,7.1,0v-1h1.1v-1H48V11H49c0,0.6,0,5.2,0,5.9h3v2h1v6.1h-1
		l0,2.1h0.9v0.9H54c0,0.6,0,1.5,0,2.2h1.1c0,4.9,1.1,11.2-5.3,12.9c-6.3-0.8-12.8,2.3-17.1-2.6c-5.2-6,0.9-11.4,0.4-17.2
		c0.2-1.4-1-4.8,1.1-4.2L34,17L37,16.8z"/>
	<path class="st2" d="M36.6,27c-5.6,6.7-2.2,12.5,5.4,11.9c3.1-1,7.9,1.1,8.8-3C52.6,23.9,43.7,27.3,36.6,27z"/>
	<rect x="35.9" y="21" class="st2" width="13.9" height="2"/>
	<path class="st2" d="M40.6,15.1c-0.8,2.8,4,1.8,4.8,1.9c0.6-0.2,0.6-1.5,0.7-1.9H40.6z"/>
</g>
</svg>
